<svg xmlns="http://www.w3.org/2000/svg" version="1.1" xmlns:xlink="http://www.w3.org/1999/xlink"
  xmlns:svgjs="http://svgjs.com/svgjs" width="512" height="512" x="0" y="0" viewBox="0 0 512 512"
  style="enable-background:new 0 0 512 512" xml:space="preserve" class="">
  <g>
    <path
      d="m113.342 458.734.02 15.69c.03 16.634 13.532 30.096 30.166 30.076 16.624-.02 30.096-13.532 30.065-30.156l-.04-30.268c-26.446-12.861-55.636-10.976-86.531.075 6.71 7.556 15.91 12.852 26.32 14.583z"
      style="" fill="#544d66" data-original="#544d66"></path>
    <path
      d="M75.637 413.891c.015 11.477 4.319 22.303 11.385 30.26l86.531-.075-.04-29.963c-32.608-21.876-65.233-22.168-97.876-.222z"
      style="" fill="#4a4359" data-original="#4a4359"></path>
    <path
      d="m380.98 430.626-41.796 13.306.045 30.171c.03 16.634 13.532 30.096 30.156 30.065 16.634-.02 30.106-13.522 30.076-30.156l-.02-15.69c10.159-1.728 19.161-6.847 25.809-14.144l-44.27-13.552z"
      style="" fill="#605875" data-original="#605875"></path>
    <path
      d="m339.14 414.062.045 29.87 67.716-.059v.305h18.35c7.253-7.961 11.702-18.515 11.765-30.116-33.012-20.532-65.633-20.291-97.876 0z"
      style="" fill="#544d66" data-original="#544d66"></path>
    <path
      d="M165.653 60.202v37.645c-30.116 17.4-60.232 17.4-90.347 0V60.202c30.115-15.727 60.231-15.727 90.347 0zM346.347 60.202v37.645c-28.436 15.567-58.59 15.218-90.347 0V60.202c30.451-20.18 60.575-20.642 90.347 0z"
      style="" fill="#e9e9fb" data-original="#e9e9fb"></path>
    <path
      d="M436.694 248.426V109.392c0-18.853-15.279-34.131-34.131-34.131h-22.085c-18.853 0-34.131 15.279-34.131 34.131l-27.486 69.684 27.486 69.35c28.593 12.711 58.627 13.389 90.347 0z"
      style="" fill="#65dbfd" data-original="#65dbfd"></path>
    <path d="M346.347 288.58h90.347v-40.154h-90.347l-17.735 18.237z" style="" fill="#05c9fb" data-original="#05c9fb">
    </path>
    <path
      d="m256 248.426 23.423-73.449L256 109.392c0-18.853-15.279-34.131-34.131-34.131h-22.085c-18.852 0-34.131 15.279-34.131 34.131l-31.789 67.509 31.789 71.525c28.663 12.729 58.705 13.375 90.347 0z"
      style="" fill="#fbe47f" data-original="#fbe47f"></path>
    <path d="m165.653 248.426-18.762 17.902 18.762 22.252H256l21.416-20.077L256 248.426z" style="" fill="#fbd251"
      data-original="#fbd251"></path>
    <path d="M165.653 97.847H75.306v150.579c28.868 11.247 59.029 10.838 90.347 0V97.847z" style="" fill="#fb7669"
      data-original="#fb7669"></path>
    <path d="M75.306 248.426h90.347v40.154H75.306z" style="" fill="#fa5757" data-original="#fa5757"></path>
    <path d="M346.347 248.426V97.847H256v150.579c30.116 15.839 60.232 15.839 90.347 0z" style="" fill="#88d16f"
      data-original="#88d16f"></path>
    <path d="M256 248.426h90.347v40.154H256z" style="" fill="#6dc54b" data-original="#6dc54b"></path>
    <path
      d="M504.455 366.379v-40.154c0-26.331-21.352-47.683-47.683-47.683h-321.45c-48.3 0-69.72 21.352-69.72 47.683v40.154c0 25.485 26.512 47.616 67.197 47.616 416.195-.361 267.786-.163 329.14-.216 23.901-2.577 42.516-22.815 42.516-47.4z"
      style="" fill="#e58e5a" data-original="#e58e5a"></path>
    <path
      d="M87.638 366.379v-40.154c0-26.331 21.352-47.683 47.683-47.683H55.228c-26.331 0-47.683 21.352-47.683 47.683v40.154c0 26.331 21.352 47.683 47.683 47.683l77.57-.067c-25.158-1.312-45.16-22.131-45.16-47.616z"
      style="" fill="#e17843" data-original="#e17843"></path>
    <path
      d="M165.653 41.631v18.571H75.306V41.631c0-18.852 15.279-34.131 34.131-34.131h22.085c18.852 0 34.131 15.279 34.131 34.131z"
      style="" fill="#fb7669" data-original="#fb7669"></path>
    <path
      d="M346.347 41.631v18.571H256V41.631C256 22.779 271.279 7.5 290.131 7.5h22.085c18.853 0 34.131 15.279 34.131 34.131z"
      style="" fill="#88d16f" data-original="#88d16f"></path>
    <path
      d="M365.335 351.679c.02 12.96-13.16 23.49-29.433 23.51-16.283.03-29.483-10.46-29.503-23.42-.02-12.96 13.161-23.49 29.433-23.51 16.272-.02 29.483 10.46 29.503 23.42zM205.601 351.91c.02 12.96-13.151 23.49-29.433 23.51-16.273.03-29.483-10.46-29.503-23.42-.01-12.96 13.161-23.49 29.443-23.51 16.273-.02 29.483 10.46 29.493 23.42z"
      style="" fill="#ffffff" data-original="#ffffff"></path>
    <path
      d="m173.513 414.113.08 60.231c.03 16.624-13.442 30.136-30.065 30.156-16.634.02-30.136-13.442-30.166-30.076l-.02-15.69c-21.372-3.554-37.675-22.105-37.705-44.481M339.14 413.872l.09 60.232c.03 16.634 13.532 30.096 30.156 30.065 16.634-.02 30.106-13.522 30.076-30.156l-.02-15.69c21.188-3.605 37.574-21.836 37.574-44.432M75.31 278.37H55.23c-26.33 0-47.68 21.35-47.68 47.68v40.16c0 26.33 21.35 47.68 47.68 47.68h152.32"
      style="stroke-width:15;stroke-linecap:round;stroke-linejoin:round;stroke-miterlimit:10;" fill="none"
      stroke="#000000" stroke-width="15" stroke-linecap="round" stroke-linejoin="round" stroke-miterlimit="10"
      data-original="#000000"></path>
    <path
      d="M436.69 278.37h20.08c26.33 0 47.68 21.35 47.68 47.68v40.16c0 26.33-21.35 47.68-47.68 47.68H242.55M165.653 97.847v11.545M75.306 60.202V41.631c0-18.852 15.279-34.131 34.131-34.131h22.085c18.853 0 34.131 15.279 34.131 34.131v18.571M165.653 278.542H75.306V97.847M256 278.542h-90.347v-169.15c0-18.853 15.279-34.131 34.131-34.131h22.085c18.853 0 34.131 15.279 34.131 34.131M346.347 97.847v11.545M256 60.202V41.631C256 22.779 271.279 7.5 290.131 7.5h22.085c18.853 0 34.131 15.279 34.131 34.131v18.571M346.347 278.542H256V97.848"
      style="stroke-width:15;stroke-linecap:round;stroke-linejoin:round;stroke-miterlimit:10;" fill="none"
      stroke="#000000" stroke-width="15" stroke-linecap="round" stroke-linejoin="round" stroke-miterlimit="10"
      data-original="#000000"></path>
    <path
      d="M75.306 60.202h90.347v37.645H75.306zM256 60.202h90.347v37.645H256zM203.298 120.434h15.057M203.298 158.079h15.057M203.298 195.723h15.057M203.298 233.368h15.057M346.35 193.08v85.46h90.34V109.39c0-18.85-15.27-34.13-34.13-34.13h-22.08c-18.85 0-34.13 15.28-34.13 34.13v48.69M383.992 120.434h15.058M383.992 158.079h15.058M383.992 195.723h15.058M383.992 233.368h15.058M318.636 317.116l.02 12.047M239.441 328.912c4.025 4.608 9.938 7.519 16.534 7.509 6.605-.01 12.508-2.931 16.523-7.549M193.264 317.297l.01 12.046"
      style="stroke-width:15;stroke-linecap:round;stroke-linejoin:round;stroke-miterlimit:10;" fill="none"
      stroke="#000000" stroke-width="15" stroke-linecap="round" stroke-linejoin="round" stroke-miterlimit="10"
      data-original="#000000"></path>
  </g>
</svg>